<?xml version="1.0" standalone="no"?>
<!DOCTYPE svg PUBLIC "-//W3C//DTD SVG 20010904//EN"
 "http://www.w3.org/TR/2001/REC-SVG-20010904/DTD/svg10.dtd">
<svg version="1.0" xmlns="http://www.w3.org/2000/svg"
 width="50.000000pt" height="50.000000pt" viewBox="0 0 50.000000 50.000000"
 preserveAspectRatio="xMidYMid meet">
<g transform="translate(0.000000,50.000000) scale(0.100000,-0.100000)"
fill="#000000" stroke="none">
<path d="M73 388 c22 -129 66 -319 76 -332 19 -23 183 -23 202 0 10 13 56 210
76 332 l5 32 -182 0 -182 0 5 -32z m337 2 c0 -6 -60 -10 -160 -10 -100 0 -160
4 -160 10 0 6 60 10 160 10 100 0 160 -4 160 -10z m-190 -46 c11 -12 10 -18
-6 -35 -20 -20 -20 -20 -39 0 -14 17 -15 23 -5 36 16 19 34 19 50 -1z m110 0
c11 -12 10 -18 -6 -35 -20 -20 -20 -20 -39 0 -14 17 -15 23 -5 36 16 19 34 19
50 -1z m-210 -15 c0 -6 -4 -7 -10 -4 -5 3 -10 11 -10 16 0 6 5 7 10 4 6 -3 10
-11 10 -16z m272 -1 c-7 -7 -12 -8 -12 -2 0 6 3 14 7 17 3 4 9 5 12 2 2 -3 -1
-11 -7 -17z m-230 -35 c17 -15 17 -17 2 -35 -10 -10 -21 -18 -26 -18 -15 0
-27 44 -16 58 13 16 18 15 40 -5z m112 -1 c15 -18 15 -20 -4 -37 -19 -17 -21
-17 -40 0 -19 17 -19 19 -4 37 10 10 20 18 24 18 4 0 14 -8 24 -18z m104 -11
c5 -35 -14 -48 -38 -26 -19 17 -19 19 -3 37 21 23 37 19 41 -11z m-163 -81
c-19 -21 -19 -21 -39 -1 -19 20 -19 21 -1 41 l19 21 20 -20 c19 -20 19 -21 1
-41z m110 0 c-19 -21 -19 -21 -39 -1 -19 20 -19 21 -1 41 l19 21 20 -20 c19
-20 19 -21 1 -41z m-161 -18 c15 -18 15 -20 -4 -37 -19 -18 -20 -17 -20 3 0
11 -3 27 -6 36 -8 22 9 20 30 -2z m110 0 c15 -18 15 -20 -4 -37 -19 -17 -21
-17 -40 0 -19 17 -19 19 -4 37 10 10 20 18 24 18 4 0 14 -8 24 -18z m92 2 c-3
-9 -6 -25 -6 -36 0 -20 -1 -21 -20 -3 -19 17 -19 19 -4 37 21 22 38 24 30 2z
m-149 -91 c-15 -16 -18 -16 -37 2 -19 17 -19 19 -3 37 16 18 17 18 37 -2 19
-19 19 -21 3 -37z m103 3 c-19 -19 -21 -19 -37 -3 -16 15 -16 18 2 37 17 19
19 19 37 3 18 -16 18 -17 -2 -37z m-136 -35 c-2 -3 -12 3 -22 13 -16 17 -16
18 5 5 12 -7 20 -15 17 -18z m86 14 c11 -13 8 -15 -20 -15 -28 0 -31 2 -20 15
7 8 16 15 20 15 4 0 13 -7 20 -15z m74 0 c-4 -8 -11 -15 -16 -15 -6 0 -5 6 2
15 7 8 14 15 16 15 2 0 1 -7 -2 -15z"/>
</g>
</svg>
